<?xml version="1.0" encoding="utf-8"?>
<!-- Generator: Adobe Illustrator 24.0.2, SVG Export Plug-In . SVG Version: 6.00 Build 0)  -->
<svg version="1.1" id="Capa_1" xmlns="http://www.w3.org/2000/svg" xmlns:xlink="http://www.w3.org/1999/xlink" x="0px" y="0px"
	 viewBox="0 0 131.5 131.5" style="enable-background:new 0 0 131.5 131.5;" xml:space="preserve">
<style type="text/css">
	.st0{fill:#606639;}
</style>
<g>
	<path class="st0" d="M65.8,0C29.4,0,0,29.4,0,65.8c0,36.3,29.4,65.8,65.8,65.8c36.3,0,65.8-29.4,65.8-65.8
		C131.5,29.4,102.1,0,65.8,0z M57.8,27.8h14.3v12.7H57.8V27.8z M91.4,102.1c-1.2,1.1-3.3,1.7-6.2,1.7H50.4c-2.9,0-4.9-0.6-6.2-1.7
		c-1.2-1.1-1.8-2.6-1.8-4.4c0-1.8,0.6-3.2,1.8-4.3c1.2-1.1,3.3-1.7,6.2-1.7h11.4V62.6h-9.7c-2.9,0-4.9-0.6-6.1-1.7
		c-1.3-1.1-1.9-2.6-1.9-4.4c0-1.8,0.6-3.2,1.8-4.3c1.2-1.1,3.3-1.7,6.2-1.7h21.7v41.2h11.4c2.9,0,4.9,0.6,6.2,1.7
		c1.2,1.1,1.8,2.6,1.8,4.4C93.2,99.5,92.6,101,91.4,102.1z"/>
</g>
</svg>
