<?xml version="1.0" encoding="utf-8"?>
<!-- Generator: Adobe Illustrator 24.0.2, SVG Export Plug-In . SVG Version: 6.00 Build 0)  -->
<svg version="1.1" id="Capa_1" xmlns="http://www.w3.org/2000/svg" xmlns:xlink="http://www.w3.org/1999/xlink" x="0px" y="0px"
	 viewBox="0 0 465.1 155.5" style="enable-background:new 0 0 465.1 155.5;" xml:space="preserve">
<style type="text/css">
	.st0{fill:#606639;}
</style>
<g>
	<path class="st0" d="M33.4,0c6.9,0,12.5,1.9,16.9,5.7c4.4,3.8,6.6,8.3,6.6,13.4c0,4-1.3,7.3-3.8,10c-2.5,2.6-5.5,3.9-9,3.9
		c-3.5,0-6.4-1.1-8.7-3.3c-2.3-2.3-3.5-4.9-3.5-7.6c0-2.7,0.6-4.9,1.8-6.7c1.2-1.8,2.6-2.7,4.3-2.7c0.9,0,1.7,0.3,2.3,0.8
		c0.6,0.5,0.9,1.2,0.9,1.9c0,0.8-0.4,1.8-1.3,3c-0.9,1.2-1.3,2.5-1.3,3.8c0,1.3,0.5,2.4,1.6,3.3c1,0.9,2.4,1.3,4.1,1.3
		c1.7,0,3.1-0.7,4.3-2c1.1-1.3,1.7-3.1,1.7-5.3c0-3.3-1.5-6.3-4.5-9c-2.8-2.8-7-4.2-12.3-4.2c-6.6,0-12.1,2.9-16.3,8.8
		c-4.3,5.8-6.4,12.7-6.4,20.6c0,7.9,2.2,14.9,6.7,20.9c4.5,6,10.1,9,16.9,9c3,0,5.9-0.4,8.5-1.2c2.6-0.8,4.6-1.8,6-2.9
		c3.3-2.7,5.3-4.1,6-4.1c0.7,0,1.3,0.2,1.8,0.7c0.5,0.5,0.7,1,0.7,1.7c0,2.4-2.3,5.1-6.9,7.9c-4.6,2.9-10,4.3-16.2,4.3
		c-8.9,0-16.3-3.5-22.2-10.5C6.1,54.7,3.1,46.1,3.1,36c0-10.1,2.9-18.6,8.6-25.6S24.7,0,33.4,0z"/>
	<path class="st0" d="M104.9,48.5c0,4.5,0.3,8.3,1,11.3c0.6,3,1.5,4.7,2.5,5.1c0.4,0.2,0.8,0.3,1.3,0.4c0.5,0.1,0.9,0.2,1.1,0.3
		c0.2,0.1,0.3,0.4,0.3,0.7c0,1.7-0.5,3.1-1.4,4.1c-0.9,1-2.3,1.5-4,1.5s-3.1-1.1-4.1-3.4c-1-2.3-1.5-5.2-1.5-8.9
		c-1.7,3.6-4,6.5-7,8.8c-3,2.3-6.3,3.4-10.1,3.4c-3.7,0-6.9-1.2-9.6-3.7c-4.9-4.6-7.4-11-7.4-19.4c0-6.7,1.9-12.6,5.8-17.6
		s8.9-7.5,15-7.5c4.6,0,8.7,1.6,12.1,4.7c0-3.2,1.2-4.7,3.5-4.7c2.8,0,4.3,2.1,4.3,6.4C106.8,34.2,106.2,40.4,104.9,48.5z
		 M99.6,49.3L99.1,35c-3.6-3.6-7.5-5.4-11.6-5.4s-7.6,1.8-10.5,5.5c-2.9,3.6-4.4,8.1-4.4,13.2c0,5.2,1,9.4,2.9,12.6
		c1.9,3.2,4.6,4.9,8,4.9c3.4,0,6.5-1.5,9.4-4.5C95.8,58.3,98,54.3,99.6,49.3z"/>
	<path class="st0" d="M160.6,41.7l-0.5,14.6v4c0.1,2.5,0.7,4,1.9,4.5c0.4,0.1,0.9,0.2,1.5,0.3c0.6,0.1,0.9,0.2,1.2,0.3
		c0.2,0.1,0.3,0.4,0.3,0.7c0,1.6-0.5,3-1.5,4s-2.2,1.6-3.6,1.6c-2.3,0-3.9-0.9-4.8-2.7c-0.9-1.8-1.4-4.5-1.4-8.3l0.4-17.1
		c0-4.3-0.9-7.7-2.7-10.2c-1.8-2.6-4.3-3.8-7.5-3.8s-6.2,1.7-9.1,5.2c-2.9,3.5-5,7.5-6.3,12l0.3,20.1c0,3.2-1.2,4.7-3.5,4.7
		c-2.8,0-4.3-2.1-4.3-6.4c0-4.2,0.6-10.4,1.9-18.5c0-2.6-0.3-6.2-0.8-10.9c-0.5-4.7-0.8-7.5-0.8-8.5c0-1,0.3-1.9,1-2.7
		c0.7-0.8,1.5-1.2,2.6-1.2c1.1,0,1.9,0.4,2.6,1.2c0.7,0.8,1,1.7,1,2.6c0,0.9,0,2.3,0,4.2c0,1.9,0,3.1,0,3.8
		c4.5-7.8,10.1-11.8,16.7-11.8c4.9,0,8.8,1.8,11.5,5.3C159.2,32.5,160.6,36.8,160.6,41.7z"/>
	<path class="st0" d="M209.6,61.4c1.5,0,2.3,0.8,2.3,2.5c0,1.6-1.8,3.5-5.4,5.5c-3.6,2-7.4,3-11.3,3c-6.4,0-11.8-2.4-16.2-7.1
		c-4.3-4.8-6.5-10.6-6.5-17.4c0-6.9,2.2-12.7,6.5-17.4c4.3-4.8,10.1-7.1,17.2-7.1c3.8,0,7.3,0.9,10.3,2.6c3,1.8,4.5,3.5,4.5,5.2
		c0,1.7-0.6,2.8-1.9,3.3c-0.4,0.1-0.9,0.2-1.5,0.2c-0.6,0-1.5-0.4-2.5-1.3c-3.3-2.7-6.6-4.1-9.8-4.1c-4.3,0-8,1.8-11.2,5.4
		c-3.2,3.6-4.7,8-4.7,13.1c0,5.2,1.6,9.5,4.9,13.2s7.2,5.4,11.9,5.4c3.7,0,7.3-1.2,10.7-3.7C208.1,61.8,209,61.4,209.6,61.4z"/>
	<path class="st0" d="M226.3,3.7c2.5,0,3.8,1.5,3.8,4.5c0,1.4-0.4,2.6-1.3,3.8c-0.9,1.2-2,1.8-3.2,1.8c-2.6,0-3.9-1.6-3.9-4.7
		c0-1.5,0.4-2.7,1.3-3.8C223.9,4.2,225,3.7,226.3,3.7z M229.4,28.3l-0.5,19.5l0.5,19.5c0,3.1-1.2,4.6-3.5,4.6
		c-2.3,0-3.5-1.5-3.5-4.6l0.5-19.5l-0.5-19.5c0-3.1,1.2-4.6,3.5-4.6C228.2,23.6,229.4,25.2,229.4,28.3z"/>
	<path class="st0" d="M246.6,65.2c-4.1-4.7-6.1-10.5-6.1-17.4c0-6.9,2.1-12.7,6.2-17.5c4.1-4.8,9.4-7.2,15.7-7.2s11.5,2.4,15.6,7.1
		c4.1,4.7,6.1,10.5,6.1,17.4c0,6.9-2.1,12.7-6.3,17.5c-4.2,4.8-9.4,7.1-15.7,7.1C255.9,72.3,250.7,69.9,246.6,65.2z M247.1,47.8
		c0,5.1,1.4,9.5,4.3,13.1c2.8,3.6,6.4,5.4,10.7,5.4c4.3,0,7.9-1.8,10.9-5.4c3-3.6,4.5-8,4.5-13.1c0-5.1-1.4-9.5-4.3-13.1
		s-6.4-5.4-10.7-5.4s-7.9,1.8-11,5.5C248.5,38.3,247.1,42.7,247.1,47.8z"/>
	<path class="st0" d="M334.3,41.7l-0.5,14.6v4c0.1,2.5,0.7,4,1.9,4.5c0.4,0.1,0.9,0.2,1.5,0.3c0.6,0.1,0.9,0.2,1.2,0.3
		c0.2,0.1,0.3,0.4,0.3,0.7c0,1.6-0.5,3-1.5,4s-2.2,1.6-3.6,1.6c-2.3,0-3.9-0.9-4.8-2.7c-0.9-1.8-1.4-4.5-1.4-8.3l0.4-17.1
		c0-4.3-0.9-7.7-2.7-10.2c-1.8-2.6-4.3-3.8-7.5-3.8s-6.2,1.7-9.1,5.2c-2.9,3.5-5,7.5-6.3,12l0.3,20.1c0,3.2-1.2,4.7-3.5,4.7
		c-2.8,0-4.3-2.1-4.3-6.4c0-4.2,0.6-10.4,1.9-18.5c0-2.6-0.3-6.2-0.8-10.9c-0.5-4.7-0.8-7.5-0.8-8.5c0-1,0.3-1.9,1-2.7
		c0.7-0.8,1.5-1.2,2.6-1.2c1.1,0,1.9,0.4,2.6,1.2c0.7,0.8,1,1.7,1,2.6c0,0.9,0,2.3,0,4.2c0,1.9,0,3.1,0,3.8
		c4.5-7.8,10.1-11.8,16.7-11.8c4.9,0,8.8,1.8,11.5,5.3C332.9,32.5,334.3,36.8,334.3,41.7z"/>
	<path class="st0" d="M367.4,51.8c-3.2,0-7.1-0.5-11.8-1.4c0.4,4.4,2,8.1,4.9,11.2c2.9,3.1,6.2,4.6,10.1,4.6c3.8,0,7-0.9,9.5-2.8
		c2.5-1.9,4.1-2.8,4.9-2.8c0.8,0,1.4,0.2,1.9,0.7c0.5,0.5,0.7,1,0.7,1.7c0,1.7-1.8,3.7-5.3,5.9c-3.6,2.2-7.4,3.3-11.5,3.3
		c-6.4,0-11.5-2.3-15.3-6.8c-3.8-4.5-5.8-10-6.1-16.3c-3.3-1.1-4.9-2.7-4.9-4.8c0-1.4,0.5-2.3,1.6-2.8c0.4-0.1,0.8-0.2,1.4-0.2
		c0.6,0,1.4,0.3,2.5,0.8c1.4-5.6,4-10.2,7.7-13.8c3.7-3.6,8.1-5.3,13.2-5.3c5,0,9.1,1.4,12.2,4.2c3.1,2.8,4.6,6.4,4.6,10.9
		c0,4.5-1.9,7.9-5.7,10.2C377.8,50.7,373.1,51.8,367.4,51.8z M371.4,29.2c-4.1,0-7.5,1.5-10.2,4.6c-2.8,3.1-4.6,6.6-5.4,10.7
		c3.3,1,7.1,1.5,11.3,1.5s7.5-0.7,10.1-2.1c2.5-1.4,3.8-3.4,3.8-5.8c0-2.5-0.9-4.6-2.5-6.3C376.6,30.1,374.3,29.2,371.4,29.2z"/>
	<path class="st0" d="M430.5,57.6c0,4.1-1.7,7.6-5.1,10.2c-3.4,2.7-7.5,4-12.3,4c-4.8,0-8.9-1.1-12.5-3.2c-3.5-2.2-5.3-4.4-5.3-6.6
		c0-1.4,0.6-2.4,1.8-2.9c1.2-0.5,2.1-0.4,2.7,0.2c0.1,0.1,1.4,1.3,3.7,3.6c0.7,0.6,1.9,1.3,3.8,1.9c1.9,0.6,3.5,1,4.9,1
		c3.5,0,6.3-0.7,8.4-2.1c2.2-1.4,3.2-3.4,3.2-6c0-3.3-3.1-6-9.3-8.1c-6.9-2.3-11.3-4.4-13.2-6c-0.9-0.8-1.8-1.9-2.5-3.2
		c-0.8-1.3-1.2-2.7-1.2-4.2c0-3.3,1.5-6.3,4.6-8.8c3.1-2.5,6.7-3.8,11-3.8s7.7,0.7,10.4,2.2c2.7,1.5,4,3.1,4,4.9
		c0,2-1.1,3.1-3.2,3.1c-0.9,0-1.8-0.3-2.8-1c-3-2-5.8-3.1-8.6-3.1c-2.8,0-4.8,0.6-6.3,1.9c-1.7,1.2-2.5,2.5-2.5,4.1s0.8,2.9,2.4,3.8
		c1.6,1,4.2,2.2,7.9,3.7c3.6,1.5,5.9,2.4,6.7,2.7c2.7,1.2,4.9,2.8,6.7,4.8C429.7,52.8,430.5,55,430.5,57.6z"/>
	<path class="st0" d="M23.3,132.8c-3.2,0-7.1-0.5-11.8-1.4c0.4,4.4,2,8.1,4.9,11.2c2.9,3.1,6.2,4.6,10.1,4.6c3.8,0,7-0.9,9.5-2.8
		c2.5-1.9,4.1-2.8,4.9-2.8c0.8,0,1.4,0.2,1.9,0.7c0.5,0.5,0.7,1,0.7,1.7c0,1.7-1.8,3.7-5.3,5.9c-3.6,2.2-7.4,3.3-11.5,3.3
		c-6.4,0-11.5-2.3-15.3-6.8c-3.8-4.5-5.8-10-6.1-16.3c-3.3-1.1-4.9-2.7-4.9-4.8c0-1.4,0.5-2.3,1.6-2.8c0.4-0.1,0.8-0.2,1.4-0.2
		c0.6,0,1.4,0.3,2.5,0.8c1.4-5.6,4-10.2,7.7-13.8c3.7-3.6,8.1-5.3,13.2-5.3c5,0,9.1,1.4,12.2,4.2c3.1,2.8,4.6,6.4,4.6,10.9
		c0,4.5-1.9,7.9-5.7,10.2C33.7,131.7,28.9,132.8,23.3,132.8z M27.2,110.2c-4.1,0-7.5,1.5-10.2,4.6c-2.8,3.1-4.6,6.6-5.4,10.7
		c3.3,1,7.1,1.5,11.3,1.5s7.5-0.7,10.1-2.1c2.5-1.4,3.8-3.4,3.8-5.8c0-2.5-0.8-4.6-2.5-6.3C32.4,111.1,30.1,110.2,27.2,110.2z"/>
	<path class="st0" d="M93.8,122.7l-0.5,14.6v4c0.1,2.5,0.7,4,1.9,4.5c0.4,0.1,0.9,0.2,1.5,0.3c0.6,0.1,0.9,0.2,1.2,0.3
		c0.2,0.1,0.3,0.4,0.3,0.7c0,1.6-0.5,3-1.5,4s-2.2,1.6-3.6,1.6c-2.3,0-3.9-0.9-4.8-2.7c-0.9-1.8-1.4-4.5-1.4-8.3l0.4-17.1
		c0-4.3-0.9-7.7-2.7-10.2c-1.8-2.6-4.3-3.8-7.5-3.8s-6.2,1.7-9.1,5.2c-2.9,3.5-5,7.5-6.3,12l0.3,20.1c0,3.2-1.2,4.7-3.5,4.7
		c-2.8,0-4.3-2.1-4.3-6.4c0-4.2,0.6-10.4,1.9-18.5c0-2.6-0.3-6.2-0.8-10.9c-0.5-4.7-0.8-7.5-0.8-8.5c0-1,0.3-1.9,1-2.7
		c0.7-0.8,1.5-1.2,2.6-1.2c1.1,0,1.9,0.4,2.6,1.2c0.7,0.8,1,1.7,1,2.6c0,0.9,0,2.3,0,4.2c0,1.9,0,3.1,0,3.8
		c4.5-7.8,10.1-11.8,16.7-11.8c4.9,0,8.8,1.8,11.5,5.3C92.4,113.5,93.8,117.8,93.8,122.7z"/>
	<path class="st0" d="M134.4,84.7c2.5,0,3.8,1.5,3.8,4.5c0,1.4-0.4,2.6-1.3,3.8c-0.9,1.2-2,1.8-3.2,1.8c-2.6,0-3.9-1.6-3.9-4.7
		c0-1.5,0.4-2.7,1.3-3.8C132,85.2,133.1,84.7,134.4,84.7z M137.5,109.3l-0.5,19.5l0.5,19.5c0,3.1-1.2,4.6-3.5,4.6
		c-2.3,0-3.5-1.5-3.5-4.6l0.5-19.5l-0.5-19.5c0-3.1,1.2-4.6,3.5-4.6C136.3,104.6,137.5,106.2,137.5,109.3z"/>
	<path class="st0" d="M169,111.4l-7.7-0.2l-0.2,22c0,5.7,0.2,9.4,0.6,11.1c0.4,1.7,1.7,2.5,3.7,2.5c1,0,2.2-0.3,3.5-1
		c1.4-0.6,2.2-1,2.5-1c1.3,0,1.9,0.6,1.9,1.9s-1.1,2.6-3.4,4c-2.3,1.4-4.5,2-6.8,2c-5.4,0-8.1-4-8.1-11.9l-0.1-29.8
		c-2,0.2-3.5,0.3-4.3,0.3c-3.1,0-4.6-1-4.6-3.1c0-2,1.5-3.1,4.6-3.1l4.1,0.2l-0.2-10.4c0-3.1,1.2-4.6,3.5-4.6c2.3,0,3.5,1.5,3.5,4.6
		l-0.3,10.5l7.5-0.4c3.1,0,4.6,1.1,4.6,3.2C173.6,110.4,172.1,111.4,169,111.4z"/>
	<path class="st0" d="M186,146.2c-4.1-4.7-6.1-10.5-6.1-17.4c0-6.9,2.1-12.7,6.2-17.5c4.1-4.8,9.4-7.2,15.7-7.2s11.5,2.4,15.6,7.1
		c4.1,4.7,6.1,10.5,6.1,17.4c0,6.9-2.1,12.7-6.3,17.5c-4.2,4.8-9.4,7.1-15.7,7.1C195.2,153.3,190,150.9,186,146.2z M186.4,128.8
		c0,5.1,1.4,9.5,4.3,13.1c2.8,3.6,6.4,5.4,10.7,5.4c4.3,0,7.9-1.8,10.9-5.4c3-3.6,4.5-8,4.5-13.1c0-5.1-1.4-9.5-4.3-13.1
		s-6.4-5.4-10.7-5.4s-7.9,1.8-11,5.5C187.9,119.3,186.4,123.7,186.4,128.8z"/>
	<path class="st0" d="M273.7,122.7l-0.5,14.6v4c0.1,2.5,0.7,4,1.9,4.5c0.4,0.1,0.9,0.2,1.5,0.3c0.6,0.1,0.9,0.2,1.2,0.3
		c0.2,0.1,0.3,0.4,0.3,0.7c0,1.6-0.5,3-1.5,4s-2.2,1.6-3.6,1.6c-2.3,0-3.9-0.9-4.8-2.7c-0.9-1.8-1.4-4.5-1.4-8.3l0.4-17.1
		c0-4.3-0.9-7.7-2.7-10.2c-1.8-2.6-4.3-3.8-7.5-3.8c-3.2,0-6.2,1.7-9.1,5.2c-2.9,3.5-5,7.5-6.3,12l0.3,20.1c0,3.2-1.2,4.7-3.5,4.7
		c-2.8,0-4.3-2.1-4.3-6.4c0-4.2,0.6-10.4,1.9-18.5c0-2.6-0.3-6.2-0.8-10.9c-0.5-4.7-0.8-7.5-0.8-8.5c0-1,0.3-1.9,1-2.7
		c0.7-0.8,1.5-1.2,2.6-1.2c1.1,0,1.9,0.4,2.6,1.2c0.7,0.8,1,1.7,1,2.6c0,0.9,0,2.3,0,4.2c0,1.9,0,3.1,0,3.8
		c4.5-7.8,10.1-11.8,16.7-11.8c4.9,0,8.8,1.8,11.5,5.3C272.3,113.5,273.7,117.8,273.7,122.7z"/>
	<path class="st0" d="M324.7,129.5c0,4.5,0.3,8.3,1,11.3c0.6,3,1.5,4.7,2.5,5.1c0.4,0.2,0.8,0.3,1.3,0.4c0.5,0.1,0.9,0.2,1.1,0.3
		c0.2,0.1,0.3,0.4,0.3,0.7c0,1.7-0.5,3.1-1.4,4.1c-0.9,1-2.3,1.5-4,1.5c-1.8,0-3.1-1.1-4.1-3.4c-1-2.3-1.5-5.2-1.5-8.9
		c-1.7,3.6-4,6.5-7,8.8c-3,2.3-6.3,3.4-10.1,3.4c-3.7,0-6.9-1.2-9.6-3.7c-4.9-4.6-7.4-11-7.4-19.4c0-6.7,1.9-12.6,5.8-17.6
		c3.9-5,8.9-7.5,15-7.5c4.6,0,8.7,1.6,12.1,4.7c0-3.2,1.2-4.7,3.5-4.7c2.8,0,4.3,2.1,4.3,6.4C326.5,115.2,325.9,121.4,324.7,129.5z
		 M319.3,130.3l-0.5-14.3c-3.6-3.6-7.5-5.4-11.6-5.4s-7.6,1.8-10.5,5.5c-2.9,3.6-4.4,8.1-4.4,13.2c0,5.2,1,9.4,2.9,12.6
		c1.9,3.2,4.6,4.9,8,4.9c3.4,0,6.5-1.5,9.4-4.5C315.5,139.3,317.7,135.3,319.3,130.3z"/>
	<path class="st0" d="M407.9,122.7l-0.5,14.6v4c0.1,2.5,0.7,4,1.9,4.5c0.4,0.1,0.9,0.2,1.5,0.3c0.6,0.1,0.9,0.2,1.2,0.3
		c0.2,0.1,0.3,0.4,0.3,0.7c0,1.6-0.5,3-1.5,4s-2.2,1.6-3.6,1.6c-2.3,0-3.9-0.9-4.8-2.7c-0.9-1.8-1.4-4.5-1.4-8.3l0.4-17.1
		c0-4.3-0.8-7.7-2.5-10.2c-1.7-2.6-4-3.8-6.9-3.8c-2.9,0-5.7,1.8-8.5,5.3s-4.7,7.5-5.8,12l0.3,20.1c0,3.2-1.2,4.7-3.5,4.7
		c-2.8,0-4.3-2.1-4.3-6.4c0-4.2,0.6-10.4,1.9-18.5c0-11.5-3.2-17.2-9.5-17.2c-2.9,0-5.7,1.8-8.5,5.3s-4.7,7.5-5.8,12l0.3,20.1
		c0,3.2-1.2,4.7-3.5,4.7c-2.8,0-4.3-2.1-4.3-6.4c0-4.2,0.6-10.4,1.9-18.5c0-2.6-0.3-6.2-0.8-10.9c-0.5-4.7-0.8-7.5-0.8-8.5
		c0-1,0.3-1.9,1-2.7c0.7-0.8,1.5-1.2,2.6-1.2c1,0,1.9,0.4,2.6,1.2c0.7,0.8,1,1.7,1,2.6c0,0.9,0,2.3,0,4.2c0,1.9,0,3.1,0,3.8
		c4.1-7.8,9.4-11.8,15.8-11.8c3.6,0,6.5,1.1,8.9,3.2c2.3,2.1,3.9,5,4.9,8.6c4.1-7.8,9.4-11.8,15.8-11.8c4.7,0,8.3,1.8,10.8,5.3
		C406.6,113.4,407.9,117.7,407.9,122.7z"/>
	<path class="st0" d="M458.9,129.5c0,4.5,0.3,8.3,1,11.3c0.6,3,1.5,4.7,2.5,5.1c0.4,0.2,0.8,0.3,1.3,0.4c0.5,0.1,0.9,0.2,1.1,0.3
		c0.2,0.1,0.3,0.4,0.3,0.7c0,1.7-0.5,3.1-1.4,4.1c-0.9,1-2.3,1.5-4,1.5s-3.1-1.1-4.1-3.4c-1-2.3-1.5-5.2-1.5-8.9
		c-1.7,3.6-4,6.5-7,8.8c-3,2.3-6.3,3.4-10.1,3.4c-3.7,0-6.9-1.2-9.6-3.7c-4.9-4.6-7.4-11-7.4-19.4c0-6.7,1.9-12.6,5.8-17.6
		s8.9-7.5,15-7.5c4.6,0,8.7,1.6,12.1,4.7c0-3.2,1.2-4.7,3.5-4.7c2.8,0,4.3,2.1,4.3,6.4C460.8,115.2,460.1,121.4,458.9,129.5z
		 M453.5,130.3l-0.5-14.3c-3.6-3.6-7.5-5.4-11.6-5.4s-7.6,1.8-10.5,5.5c-2.9,3.6-4.4,8.1-4.4,13.2c0,5.2,1,9.4,2.9,12.6
		c1.9,3.2,4.6,4.9,8,4.9c3.4,0,6.5-1.5,9.4-4.5C449.8,139.3,452,135.3,453.5,130.3z"/>
</g>
</svg>
